<svg width="965" height="379" viewBox="0 0 965 379" fill="none" xmlns="http://www.w3.org/2000/svg">
<path d="M97.7987 125.409H103.548V130.318H97.7987V143.969H91.768V113.486H97.7987V125.409ZM70.1214 140.837H76.152V150.515H99.248V155.283H70.1214V140.837ZM79.6347 121.527H65.632V116.666H86.204C86.18 128.166 79.004 136.209 66.24 139.809L63.7627 135.086C73.3 132.445 78.7 127.513 79.6347 121.527Z" fill="#231916"/>
<path d="M141.279 144.811H135.342V134.339H129.918V129.428H135.342V125.735H129.918V120.967H135.342V113.485H141.279V144.811ZM119.96 134.548V121.293H115.706V134.688L119.96 134.548ZM112.994 142.473H118.978V150.515H142.307V155.283H112.994V142.473ZM109.955 134.783V121.293H106.495V116.525H129.17V121.293H125.664V134.221C127.09 134.104 128.492 133.964 129.824 133.824L130.058 138.172C122.087 139.48 112.783 139.668 106.028 139.668L105.419 134.805C106.822 134.805 108.364 134.805 109.955 134.783Z" fill="#231916"/>
<path d="M180.364 130.13H186.63V135.04H180.364V156.032H174.474V113.486H180.364V130.13ZM159.186 142.38C162.154 142.402 164.328 140.438 164.328 137.142C164.328 133.87 162.154 131.86 159.186 131.813C156.17 131.86 153.996 133.87 153.996 137.142C153.996 140.438 156.17 142.402 159.186 142.38ZM159.186 126.997C165.38 126.974 170.032 131.205 170.032 137.142C170.032 143.081 165.38 147.265 159.186 147.289C152.896 147.265 148.268 143.081 148.292 137.142C148.268 131.205 152.896 126.974 159.186 126.997ZM146.562 119.845H156.194V114.141H162.178V119.845H171.575V124.613H146.562V119.845Z" fill="#231916"/>
<path d="M225.062 156.032H219.451V113.486H225.062V156.032ZM200.867 123.35H189.997V118.536H206.781C206.781 122.602 206.337 126.39 205.309 129.897H210.427V114.421H215.991V154.161H210.427V134.618H203.462C201.03 139.48 197.079 143.688 191.026 147.194L187.659 142.986C196.261 137.892 200.049 131.696 200.867 123.35Z" fill="#231916"/>
<path d="M268.355 113.486H274.339V125.735H280.09V130.645H274.339V144.53H268.355V113.486ZM256.386 121.762H247.736V132.749H256.386V121.762ZM246.755 141.491H252.692V150.514H275.882V155.283H246.755V141.491ZM262.276 137.423H241.846V116.993H262.276V137.423Z" fill="#231916"/>
<path d="M316.651 137.938H286.541V117.039H316.323V121.855H292.432V133.168H316.651V137.938ZM281.96 145.932H320.905V150.842H281.96V145.932Z" fill="#231916"/>
<path d="M357.887 129.756H328.153V114.981H334.09V125.081H357.887V129.756ZM327.778 142.473H333.763V150.328H358.167V155.096H327.778V142.473ZM323.29 134.338H362.235V139.013H323.29V134.338Z" fill="#231916"/>
<path d="M398.844 126.203C398.844 127.021 398.75 127.792 398.586 128.54H405.67V123.819H398.564C398.75 124.567 398.844 125.385 398.844 126.203ZM397.066 151.403C402.817 151.403 405.88 150.14 405.904 147.663C405.88 145.115 402.817 143.852 397.066 143.829C391.433 143.852 388.278 145.115 388.278 147.663C388.278 150.14 391.433 151.403 397.066 151.403ZM397.066 139.293C406.066 139.271 411.725 142.38 411.748 147.663C411.725 152.945 406.066 156.055 397.066 156.032C388.068 156.055 382.433 152.945 382.433 147.663C382.433 142.38 388.068 139.271 397.066 139.293ZM387.622 131.533C390.825 131.556 393.164 129.476 393.186 126.203C393.164 122.813 390.825 120.849 387.622 120.873C384.304 120.849 381.942 122.813 381.966 126.203C381.942 129.476 384.304 131.556 387.622 131.533ZM396.016 119.096H405.67V113.485H411.608V138.405H405.67V133.309H395.969C393.934 135.367 390.989 136.605 387.622 136.583C381.172 136.605 376.262 132.211 376.309 126.203C376.262 120.125 381.172 115.753 387.622 115.777C391.013 115.753 393.982 117.016 396.016 119.096Z" fill="#231916"/>
<path d="M444.896 113.486H450.88V123.444H456.631V128.4H450.88V138.732H444.896V113.486ZM436.948 151.356C442.464 151.356 445.409 150.21 445.409 147.803C445.409 145.488 442.464 144.25 436.948 144.25C431.361 144.25 428.299 145.488 428.345 147.803C428.299 150.21 431.361 151.356 436.948 151.356ZM436.948 139.574C445.76 139.574 451.277 142.636 451.301 147.803C451.277 153.015 445.76 156.055 436.948 156.031C427.971 156.055 422.337 153.015 422.361 147.803C422.337 142.636 427.971 139.574 436.948 139.574ZM442.371 132.375L439.192 137.003C434.68 135.507 431.524 132.608 429.701 128.891C427.855 133.168 424.559 136.535 419.696 138.171L416.471 133.496C423.576 131.135 426.616 125.478 426.663 119.611V115.73H432.647V120.172C432.623 125.338 435.639 130.294 442.371 132.375Z" fill="#231916"/>
<path d="M505.301 156.032H499.271V113.486H505.301V156.032ZM486.46 122.602H471.965V117.928H492.536C492.513 130.832 488.001 141.561 472.808 148.737L469.675 143.969C480.661 138.78 485.5 132.046 486.46 122.602Z" fill="#231916"/>
<path d="M540.599 113.58H546.678V142.286H540.599V113.58ZM524.983 130.737C527.906 130.761 529.892 129.942 529.892 128.4C529.892 126.74 527.906 125.922 524.983 125.922C521.944 125.922 520.051 126.74 520.075 128.4C520.051 129.942 521.944 130.761 524.983 130.737ZM517.083 143.969H546.678V156.032H540.599V148.55H517.083V143.969ZM537.607 120.966H512.362V116.618H521.991V113.205H527.928V116.618H537.607V120.966ZM521.991 136.792V134.525C517.247 133.87 514.302 131.673 514.324 128.4C514.302 124.449 518.532 121.925 524.983 121.948C531.272 121.925 535.596 124.449 535.644 128.4C535.596 131.649 532.582 133.87 527.928 134.525V136.582C531.343 136.396 534.756 136.138 537.982 135.74L538.402 139.714C529.332 141.281 519.374 141.421 511.892 141.444L511.098 136.909C514.394 136.909 518.111 136.909 521.991 136.792Z" fill="#231916"/>
<path d="M586.043 125.689H591.792V130.645H586.043V144.483H580.059V113.486H586.043V125.689ZM558.459 141.211H564.396V150.515H587.586V155.283H558.459V141.211ZM564.255 132.655C567.528 132.655 570.03 130.505 570.054 127.045C570.03 123.491 567.528 121.411 564.255 121.435C561.007 121.411 558.411 123.491 558.459 127.045C558.411 130.505 561.007 132.655 564.255 132.655ZM564.255 116.245C570.778 116.221 575.85 120.71 575.85 127.045C575.85 133.286 570.778 137.845 564.255 137.845C557.711 137.845 552.544 133.286 552.568 127.045C552.544 120.71 557.711 116.221 564.255 116.245Z" fill="#231916"/>
<path d="M672.876 97.8672C667.135 97.8672 662.464 93.1965 662.464 87.4539C662.464 81.7125 667.135 77.0419 672.876 77.0419C678.587 77.0419 683.235 81.7125 683.235 87.4539C683.235 93.1965 678.587 97.8672 672.876 97.8672Z" fill="#ED7121"/>
<path d="M672.877 76.3755C666.767 76.3755 661.798 81.3462 661.798 87.4542C661.798 93.5635 666.767 98.5342 672.877 98.5342C678.955 98.5342 683.902 93.5635 683.902 87.4542C683.902 81.3462 678.955 76.3755 672.877 76.3755ZM672.877 77.7088C678.237 77.7088 682.569 82.0942 682.569 87.4542C682.569 92.8155 678.237 97.2008 672.877 97.2008C667.462 97.2008 663.131 92.8155 663.131 87.4542C663.131 82.0942 667.462 77.7088 672.877 77.7088Z" fill="white"/>
<path d="M113.59 222.12C116.199 222.464 118.647 220.632 119.026 218.004L122.205 196.025C122.389 194.744 122.055 193.442 121.275 192.409C120.495 191.376 119.334 190.696 118.053 190.522L30.1326 178.604C27.5139 178.24 25.0473 180.09 24.6753 182.734L0.0472765 357.514C-0.15139 358.932 0.281941 360.364 1.23661 361.429C2.15927 362.458 3.47394 363.046 4.85394 363.046C4.9006 363.046 4.94861 363.046 4.99394 363.044L114.362 359.865C116.943 359.792 119.014 357.709 119.074 355.128L119.605 332.62C119.638 331.288 119.119 330.001 118.173 329.06C117.226 328.121 116.002 327.564 114.602 327.654L35.4646 330.121L42.1459 288.314L111.431 282.793C113.953 282.592 115.898 280.485 115.898 277.953V256.768C115.898 255.416 115.334 254.126 114.343 253.208C113.353 252.29 112.021 251.828 110.678 251.928L47.1579 256.757L53.9219 214.266L113.59 222.12Z" fill="#231916"/>
<path d="M217.415 274.11L191.726 278.625L206.478 236.619L217.415 274.11ZM223.467 189.153C222.818 187.015 220.802 185.591 218.565 185.717L193.671 187.041C191.705 187.146 189.994 188.43 189.347 190.293L131.351 356.863C130.474 359.382 131.794 362.138 134.309 363.031L154.437 370.182C155.659 370.613 156.989 370.545 158.154 369.987C159.318 369.433 160.211 368.435 160.641 367.219L179.822 312.703L226.226 304.662L244.617 368.281C245.227 370.398 247.162 371.786 249.275 371.786C249.659 371.786 250.051 371.741 250.442 371.643L271.891 366.347C273.183 366.03 274.29 365.193 274.946 364.034C275.605 362.878 275.759 361.501 275.373 360.226L223.467 189.153Z" fill="#231916"/>
<path d="M397.296 170.274C395.85 168.238 393.098 167.64 390.94 168.864L294.017 223.946C292.462 224.833 291.52 226.501 291.565 228.29L292.093 249.212C292.136 250.909 293.062 252.461 294.536 253.302L367.692 295.106L289.872 351.073C288.818 351.834 288.112 352.984 287.91 354.268C287.71 355.554 288.036 356.865 288.81 357.908L302.582 376.448C303.534 377.729 304.997 378.408 306.482 378.408C307.473 378.408 308.476 378.104 309.338 377.476L405.204 307.562C406.42 306.677 407.154 305.276 407.194 303.77L407.724 284.174C407.77 282.406 406.853 280.753 405.328 279.857L334.416 238.273L408.733 195.565C409.92 194.882 410.764 193.732 411.056 192.397C411.349 191.061 411.065 189.662 410.273 188.546L397.296 170.274Z" fill="#231916"/>
<path d="M484.286 173.277L457.274 171.158C454.74 170.963 452.418 172.807 452.082 175.367L428.248 357.562C427.907 360.183 429.722 362.595 432.336 362.991L455.11 366.434C455.356 366.473 455.6 366.489 455.843 366.489C458.198 366.489 460.267 364.771 460.632 362.37L488.703 178.85C488.91 177.517 488.547 176.158 487.71 175.102C486.871 174.045 485.632 173.383 484.286 173.277Z" fill="#231916"/>
<path d="M649.763 300.728C648.915 298.275 646.275 296.932 643.801 297.661L556.137 323.619L574.781 179.003C574.951 177.687 574.575 176.357 573.741 175.327C572.906 174.296 571.686 173.652 570.363 173.545L544.411 171.427C541.818 171.199 539.501 173.099 539.195 175.696L519.865 340.413C519.679 341.983 520.27 343.541 521.447 344.596L539.19 360.487C540.093 361.295 541.25 361.724 542.427 361.724C542.906 361.724 543.387 361.652 543.859 361.508L653.759 327.609C655.015 327.221 656.062 326.339 656.657 325.167C657.253 323.993 657.345 322.628 656.913 321.384L649.763 300.728Z" fill="#231916"/>
<path d="M681.406 63.3822C668.21 63.3822 657.473 74.1248 657.473 87.3289C657.473 100.549 668.21 111.302 681.406 111.302C694.633 111.302 705.393 100.549 705.393 87.3289C705.393 74.1248 694.633 63.3822 681.406 63.3822ZM834.5 304.089C824.04 304.089 813.498 301.978 803.17 297.814C787.51 291.504 774.001 281.154 765.13 268.677L765.006 268.502L764.98 268.237V268.016L787.758 237.505L788.297 237.949C798.594 246.413 813.706 250.529 834.5 250.529C861.974 250.529 884.326 228.184 884.326 200.716C884.326 175.336 864.64 153.658 839.425 151.168C832.509 163.914 820.877 173.972 807.445 178.797C803.124 180.361 799.314 181.121 795.798 181.121C794.672 181.121 793.56 181.041 792.496 180.882C790.434 180.576 788.384 179.91 786.565 178.961C786.389 178.852 786.249 178.782 786.109 178.713C783.382 177.18 781.302 175.052 780.062 172.545C776.886 166.09 779.657 158.45 783.813 153.742C784.652 152.793 785.622 151.866 786.804 150.889H746.274C739.374 163.778 727.686 173.937 714.153 178.797C709.829 180.361 706.018 181.121 702.505 181.121C701.378 181.121 700.266 181.041 699.202 180.882C693.674 180.073 688.91 176.878 686.768 172.545C683.592 166.084 686.37 158.445 690.534 153.741C691.369 152.788 692.336 151.86 693.513 150.889H640.833C633.058 150.889 625.576 147.224 620.306 140.833C614.038 133.224 611.489 122.63 613.486 112.493C624.89 54.1862 672.236 9.35953 731.3 0.948853C732.58 0.762207 733.878 0.666199 735.156 0.666199C741.436 0.666199 747.349 2.89685 752.256 7.11685C759.054 13.0275 762.953 22.2115 762.953 32.3155V45.8755H834.406C834.458 45.8715 834.536 45.8702 834.605 45.8702L835.434 45.8755C906.118 46.3982 963.62 104.316 963.62 174.982C963.62 246.173 905.697 304.089 834.5 304.089Z" fill="#ED7121"/>
<path d="M681.407 110.636C668.577 110.636 658.14 100.181 658.14 87.3292C658.14 74.4932 668.577 64.0492 681.407 64.0492C694.265 64.0492 704.727 74.4932 704.727 87.3292C704.727 100.181 694.265 110.636 681.407 110.636ZM735.155 -0.00012207C733.845 -0.00012207 732.515 0.0971985 731.2 0.290527C671.861 8.73984 624.291 53.7799 612.832 112.367C610.796 122.695 613.397 133.496 619.791 141.257C625.189 147.803 632.859 151.556 640.833 151.556H691.736C691.107 152.139 690.544 152.717 690.029 153.304C685.723 158.169 682.856 166.101 686.171 172.837C688.408 177.367 693.364 180.701 699.107 181.541C700.201 181.705 701.345 181.788 702.505 181.788C706.097 181.788 709.983 181.015 714.38 179.423C727.943 174.553 739.671 164.42 746.672 151.556H785.025C784.396 152.139 783.831 152.715 783.315 153.3C779.011 158.176 776.152 166.108 779.464 172.837C780.765 175.468 782.939 177.695 785.753 179.277C785.929 179.368 786.048 179.425 786.157 179.493L786.205 179.525L786.256 179.551C788.141 180.536 790.265 181.224 792.397 181.541C793.493 181.705 794.639 181.788 795.799 181.788C799.392 181.788 803.276 181.015 807.673 179.423C821.117 174.593 832.78 164.58 839.796 151.876C864.463 154.54 883.66 175.824 883.66 200.716C883.66 227.816 861.607 249.863 834.5 249.863C813.867 249.863 798.892 245.797 788.72 237.433L787.641 236.545L786.805 237.665L764.579 267.439L764.313 267.793V268.236V268.784L764.635 269.129C773.58 281.68 787.173 292.085 802.921 298.432C813.327 302.628 823.951 304.756 834.5 304.756C906.064 304.756 964.287 246.54 964.287 174.983C964.287 140.536 950.881 108.073 926.539 83.5732C902.212 59.0879 869.86 45.4638 835.443 45.2092H834.9L834.815 45.2065L834.605 45.2039C834.536 45.2039 834.459 45.2052 834.371 45.2092H763.62V32.3159C763.62 22.0185 759.637 12.6519 752.695 6.61584C747.661 2.28653 741.597 -0.00012207 735.155 -0.00012207ZM681.407 111.969C695.02 111.969 706.06 100.929 706.06 87.3292C706.06 73.7159 695.02 62.7159 681.407 62.7159C667.847 62.7159 656.807 73.7159 656.807 87.3292C656.807 100.929 667.847 111.969 681.407 111.969ZM735.155 1.33319C741.264 1.33319 747.067 3.53452 751.82 7.6225C758.447 13.3825 762.287 22.4092 762.287 32.3159V46.5425H834.407C834.483 46.5385 834.548 46.5372 834.605 46.5372C834.723 46.5372 834.811 46.5425 834.9 46.5425H835.433C905.833 47.0625 962.953 104.463 962.953 174.983C962.953 245.809 905.327 303.423 834.5 303.423C823.86 303.423 813.273 301.169 803.42 297.196C788.633 291.236 774.953 281.343 765.673 268.289C765.66 268.276 765.647 268.249 765.647 268.236L787.873 238.463C800.553 248.889 818.567 251.196 834.5 251.196C862.34 251.196 884.993 228.543 884.993 200.716C884.993 174.409 864.753 152.769 839.047 150.463C832.287 163.156 820.767 173.303 807.22 178.169C803.553 179.496 799.673 180.455 795.799 180.455C794.728 180.455 793.659 180.381 792.593 180.223C790.62 179.929 788.66 179.303 786.873 178.369C786.727 178.276 786.567 178.196 786.407 178.116C783.967 176.743 781.9 174.756 780.66 172.249C777.78 166.396 780.007 159.063 784.313 154.183C785.633 152.689 787.153 151.409 788.727 150.223H745.873C739.127 163.036 727.553 173.276 713.927 178.169C710.26 179.496 706.38 180.455 702.505 180.455C701.435 180.455 700.365 180.381 699.3 180.223C694.38 179.503 689.567 176.703 687.367 172.249C684.487 166.396 686.713 159.063 691.033 154.183C692.34 152.689 693.86 151.409 695.447 150.223H640.833C633.247 150.223 625.967 146.649 620.82 140.409C614.713 132.996 612.18 122.569 614.14 112.623C625.487 54.6092 672.593 9.98254 731.393 1.60919C732.656 1.42386 733.911 1.33319 735.155 1.33319Z" fill="white"/>
<path d="M805.034 204.329C805.834 203.249 806.167 201.889 805.927 200.569C805.701 199.249 804.927 198.089 803.807 197.356L783.941 184.382C783.127 183.849 782.207 183.596 781.301 183.596C779.781 183.596 778.287 184.302 777.341 185.636L776.834 186.356L759.341 210.942L732.274 248.969L684.594 182.956C683.647 181.649 682.167 180.942 680.661 180.942C679.754 180.942 678.847 181.196 678.034 181.716L657.901 194.689C656.767 195.422 655.994 196.596 655.754 197.929C655.514 199.249 655.847 200.622 656.661 201.702L714.114 277.609L709.447 357.916C709.287 360.582 711.327 362.876 713.994 363.036L735.447 364.356C735.541 364.369 735.647 364.369 735.741 364.369C738.247 364.369 740.354 362.462 740.581 359.929L747.341 281.609L761.861 262.156L783.047 233.782L805.034 204.329Z" fill="#231916"/>
</svg>
