<svg width="965" height="486" viewBox="0 0 965 486" fill="none" xmlns="http://www.w3.org/2000/svg">
<path d="M682.998 118C665.905 118 652 104.095 652 86.9979C652 69.9051 665.905 55.9998 682.998 55.9998C700 55.9998 713.837 69.9051 713.837 86.9979C713.837 104.095 700 118 682.998 118Z" fill="white"/>
<path d="M672.876 97.8672C667.135 97.8672 662.464 93.1965 662.464 87.4539C662.464 81.7125 667.135 77.0419 672.876 77.0419C678.587 77.0419 683.235 81.7125 683.235 87.4539C683.235 93.1965 678.587 97.8672 672.876 97.8672Z" fill="#ED7121"/>
<path d="M672.877 76.3755C666.767 76.3755 661.798 81.3462 661.798 87.4542C661.798 93.5635 666.767 98.5342 672.877 98.5342C678.955 98.5342 683.902 93.5635 683.902 87.4542C683.902 81.3462 678.955 76.3755 672.877 76.3755ZM672.877 77.7088C678.237 77.7088 682.569 82.0942 682.569 87.4542C682.569 92.8155 678.237 97.2008 672.877 97.2008C667.462 97.2008 663.131 92.8155 663.131 87.4542C663.131 82.0942 667.462 77.7088 672.877 77.7088Z" fill="white"/>
<path d="M113.59 222.12C116.199 222.464 118.647 220.632 119.026 218.004L122.205 196.025C122.389 194.744 122.055 193.442 121.275 192.409C120.495 191.376 119.334 190.696 118.053 190.522L30.1326 178.604C27.5139 178.24 25.0473 180.09 24.6753 182.734L0.0472765 357.514C-0.15139 358.932 0.281941 360.364 1.23661 361.429C2.15927 362.458 3.47394 363.046 4.85394 363.046C4.9006 363.046 4.94861 363.046 4.99394 363.044L114.362 359.865C116.943 359.792 119.014 357.709 119.074 355.128L119.605 332.62C119.638 331.288 119.119 330.001 118.173 329.06C117.226 328.121 116.002 327.564 114.602 327.654L35.4646 330.121L42.1459 288.314L111.431 282.793C113.953 282.592 115.898 280.485 115.898 277.953V256.768C115.898 255.416 115.334 254.126 114.343 253.208C113.353 252.29 112.021 251.828 110.678 251.928L47.1579 256.757L53.9219 214.266L113.59 222.12Z" fill="white"/>
<path d="M217.415 274.11L191.726 278.625L206.478 236.619L217.415 274.11ZM223.467 189.153C222.818 187.015 220.802 185.591 218.565 185.717L193.671 187.041C191.705 187.146 189.994 188.43 189.347 190.293L131.351 356.863C130.474 359.382 131.794 362.138 134.309 363.031L154.437 370.182C155.659 370.613 156.989 370.545 158.154 369.987C159.318 369.433 160.211 368.435 160.641 367.219L179.822 312.703L226.226 304.662L244.617 368.281C245.227 370.398 247.162 371.786 249.275 371.786C249.659 371.786 250.051 371.741 250.442 371.643L271.891 366.347C273.183 366.03 274.29 365.193 274.946 364.034C275.605 362.878 275.759 361.501 275.373 360.226L223.467 189.153Z" fill="white"/>
<path d="M397.296 170.274C395.85 168.238 393.098 167.64 390.94 168.864L294.017 223.946C292.462 224.833 291.52 226.501 291.565 228.29L292.093 249.212C292.136 250.909 293.062 252.461 294.536 253.302L367.692 295.106L289.872 351.073C288.818 351.834 288.112 352.984 287.91 354.268C287.71 355.554 288.036 356.865 288.81 357.908L302.582 376.448C303.534 377.729 304.997 378.408 306.482 378.408C307.473 378.408 308.476 378.104 309.338 377.476L405.204 307.562C406.42 306.677 407.154 305.276 407.194 303.77L407.724 284.174C407.77 282.406 406.853 280.753 405.328 279.857L334.416 238.273L408.733 195.565C409.92 194.882 410.764 193.732 411.056 192.397C411.349 191.061 411.065 189.662 410.273 188.546L397.296 170.274Z" fill="white"/>
<path d="M484.286 173.277L457.274 171.158C454.74 170.963 452.418 172.807 452.082 175.367L428.248 357.562C427.907 360.183 429.722 362.595 432.336 362.991L455.11 366.434C455.356 366.473 455.6 366.489 455.843 366.489C458.198 366.489 460.267 364.771 460.632 362.37L488.703 178.85C488.91 177.517 488.547 176.158 487.71 175.102C486.871 174.045 485.632 173.383 484.286 173.277Z" fill="white"/>
<path d="M649.763 300.728C648.915 298.275 646.275 296.932 643.801 297.661L556.137 323.619L574.781 179.003C574.951 177.687 574.575 176.357 573.741 175.327C572.906 174.296 571.686 173.652 570.363 173.545L544.411 171.427C541.818 171.199 539.501 173.099 539.195 175.696L519.865 340.413C519.679 341.983 520.27 343.541 521.447 344.596L539.19 360.487C540.093 361.295 541.25 361.724 542.427 361.724C542.906 361.724 543.387 361.652 543.859 361.508L653.759 327.609C655.015 327.221 656.062 326.339 656.657 325.167C657.253 323.993 657.345 322.628 656.913 321.384L649.763 300.728Z" fill="white"/>
<path d="M681.406 63.3822C668.21 63.3822 657.473 74.1249 657.473 87.3289C657.473 100.549 668.21 111.302 681.406 111.302C694.633 111.302 705.393 100.549 705.393 87.3289C705.393 74.1249 694.633 63.3822 681.406 63.3822ZM834.5 304.089C824.04 304.089 813.498 301.978 803.17 297.814C787.51 291.504 774.001 281.154 765.13 268.677L765.006 268.502L764.98 268.237V268.016L787.758 237.505L788.297 237.949C798.594 246.413 813.706 250.529 834.5 250.529C861.974 250.529 884.326 228.184 884.326 200.716C884.326 175.336 864.64 153.658 839.425 151.168C832.509 163.914 820.877 173.972 807.445 178.797C803.124 180.361 799.314 181.121 795.798 181.121C794.672 181.121 793.56 181.041 792.496 180.882C790.434 180.576 788.384 179.91 786.565 178.961C786.389 178.852 786.249 178.782 786.109 178.713C783.382 177.18 781.302 175.052 780.062 172.545C776.886 166.09 779.657 158.45 783.813 153.742C784.652 152.793 785.622 151.866 786.804 150.889H746.274C739.374 163.778 727.686 173.937 714.153 178.797C709.829 180.361 706.018 181.121 702.505 181.121C701.378 181.121 700.266 181.041 699.202 180.882C693.674 180.073 688.91 176.878 686.768 172.545C683.592 166.084 686.37 158.445 690.534 153.741C691.369 152.788 692.336 151.86 693.513 150.889H640.833C633.058 150.889 625.576 147.224 620.306 140.833C614.038 133.224 611.489 122.63 613.486 112.493C624.89 54.1862 672.236 9.35952 731.3 0.948853C732.58 0.762186 733.878 0.666199 735.156 0.666199C741.436 0.666199 747.349 2.89685 752.256 7.11685C759.054 13.0275 762.953 22.2115 762.953 32.3155V45.8755H834.406C834.458 45.8715 834.536 45.8702 834.605 45.8702L835.434 45.8755C906.118 46.3982 963.62 104.316 963.62 174.982C963.62 246.173 905.697 304.089 834.5 304.089Z" fill="#ED7121"/>
<path d="M805.034 204.329C805.834 203.249 806.167 201.889 805.927 200.569C805.701 199.249 804.927 198.089 803.807 197.356L783.941 184.382C783.127 183.849 782.207 183.596 781.301 183.596C779.781 183.596 778.287 184.302 777.341 185.636L776.834 186.356L759.341 210.942L732.274 248.969L684.594 182.956C683.647 181.649 682.167 180.942 680.661 180.942C679.754 180.942 678.847 181.196 678.034 181.716L657.901 194.689C656.767 195.422 655.994 196.596 655.754 197.929C655.514 199.249 655.847 200.622 656.661 201.702L714.114 277.609L709.447 357.916C709.287 360.582 711.327 362.876 713.994 363.036L735.447 364.356C735.541 364.369 735.647 364.369 735.741 364.369C738.247 364.369 740.354 362.462 740.581 359.929L747.341 281.609L761.861 262.156L783.047 233.782L805.034 204.329Z" fill="white"/>
</svg>
